<?xml version="1.0" standalone="no"?>
<!DOCTYPE svg PUBLIC "-//W3C//DTD SVG 20010904//EN"
 "http://www.w3.org/TR/2001/REC-SVG-20010904/DTD/svg10.dtd">
<svg version="1.0" xmlns="http://www.w3.org/2000/svg"
 width="500.000000pt" height="961.000000pt" viewBox="0 0 500.000000 961.000000"
 preserveAspectRatio="xMidYMid meet">

<g transform="translate(0.000000,961.000000) scale(0.100000,-0.100000)"
fill="#000000" stroke="none">
<path d="M2430 9586 c-119 -36 -155 -58 -284 -176 -104 -95 -239 -307 -306
-478 -64 -165 -117 -364 -135 -503 -2 -16 -6 -32 -8 -36 -19 -31 -25 -604 -7
-702 5 -31 12 -72 14 -91 36 -259 166 -594 289 -749 58 -72 191 -192 249 -225
81 -45 95 -61 104 -114 l7 -42 -351 0 -350 0 14 29 c22 44 90 117 142 152 26
17 76 38 114 47 38 9 68 19 68 23 0 13 -97 69 -152 88 -66 23 -200 22 -263 -2
-132 -49 -242 -161 -295 -301 l-11 -29 -79 6 c-44 4 -94 14 -112 23 -97 50
-208 162 -208 210 0 47 -18 31 -59 -50 -37 -77 -47 -88 -104 -124 -129 -82
-169 -96 -347 -127 -52 -9 -109 -21 -127 -26 -18 -6 -76 -16 -130 -23 -74 -9
-98 -15 -98 -26 0 -11 19 -17 70 -23 80 -9 171 -26 200 -37 11 -4 56 -16 100
-28 89 -23 221 -71 275 -99 89 -47 146 -115 170 -204 12 -42 35 -52 45 -18 13
40 94 145 122 158 63 30 152 51 214 51 l67 0 36 -76 c43 -91 133 -185 217
-227 68 -34 164 -50 238 -41 59 7 157 39 166 54 3 5 -27 24 -67 43 -54 25 -87
49 -126 92 -49 54 -92 121 -92 144 0 12 711 4 721 -8 3 -3 2 -25 -3 -49 -7
-32 -25 -59 -69 -106 l-59 -64 0 -2671 0 -2670 120 -250 c66 -138 120 -254
120 -258 0 -5 7 -19 16 -32 l17 -24 17 34 c9 19 75 147 146 284 l129 250 3
2677 2 2676 -35 22 c-42 26 -70 76 -79 143 l-7 47 340 0 c188 0 341 -2 341 -5
0 -3 -11 -27 -24 -53 -22 -44 -145 -172 -165 -172 -5 0 -30 -10 -57 -21 l-48
-22 22 -18 c35 -28 130 -52 203 -52 162 0 332 116 409 279 l29 61 53 6 c58 6
120 -6 185 -34 24 -11 47 -19 53 -19 11 0 79 -90 104 -137 9 -18 20 -33 25
-33 5 0 23 30 41 68 59 127 105 157 395 257 77 27 260 66 323 70 60 4 97 18
87 35 -2 4 -35 10 -72 13 -37 4 -111 16 -163 28 -104 23 -143 31 -238 48 -72
14 -203 78 -263 129 -38 33 -99 135 -99 167 0 30 -19 14 -30 -24 -8 -30 -30
-58 -90 -114 -88 -82 -138 -105 -247 -114 -55 -5 -63 -3 -69 13 -80 228 -292
371 -497 335 -66 -11 -202 -74 -211 -97 -3 -8 -4 -14 -2 -14 2 0 27 -4 56 -10
87 -17 187 -87 248 -176 39 -57 53 -55 -295 -56 -178 -1 -324 0 -327 3 -7 7
13 110 24 124 7 8 33 26 58 41 201 118 366 347 481 672 90 252 136 534 134
832 -1 166 -16 401 -27 418 -2 4 -7 32 -11 62 -4 30 -9 58 -12 62 -2 5 -15 50
-28 102 -29 114 -110 321 -148 379 -9 15 -17 30 -17 34 0 4 -26 42 -58 85
-132 176 -237 260 -381 303 -104 31 -181 31 -281 1z m188 -400 c196 -52 370
-276 469 -601 13 -44 26 -91 29 -105 2 -14 7 -31 9 -38 3 -7 15 -77 27 -155
32 -214 27 -547 -12 -720 -5 -26 -13 -64 -16 -85 -3 -20 -12 -55 -19 -77 -8
-22 -19 -60 -25 -85 -13 -49 -22 -72 -82 -199 -78 -168 -196 -304 -316 -363
-57 -28 -79 -34 -154 -36 -82 -4 -91 -2 -160 31 -127 62 -229 172 -316 342
-67 132 -132 326 -148 445 -3 25 -9 63 -13 86 -5 23 -9 74 -10 115 -1 40 -7
79 -12 85 -17 20 11 426 37 539 9 39 17 79 19 90 4 32 45 167 60 200 7 17 16
41 20 55 14 47 77 165 128 238 137 199 310 284 485 238z"/>
</g>
</svg>
