<?xml version="1.0" encoding="utf-8"?>
<svg viewBox="0 -2.171 500 963.171" xmlns="http://www.w3.org/2000/svg" xmlns:bx="https://boxy-svg.com">
  <g transform="matrix(0.1, 0, 0, -0.1, 0, 961)" fill="#000000" stroke="none">
    <path d="M 2430 9592.573 C 2311 9567.148 2275 9551.611 2146 9468.273 C 2042 9401.178 1907 9251.452 1840 9130.682 C 1776 9014.149 1723 8873.604 1705 8775.434 C 1703 8764.135 1699 8752.834 1697 8750.008 C 1678 8728.115 1672 8323.43 1690 8254.217 C 1695 8232.323 1702 8203.366 1704 8189.948 C 1740 8007.027 1870 7770.431 1993 7660.961 C 2051 7610.11 2184 7525.36 2242 7502.053 C 2323 7470.272 2337 7458.971 2346 7421.54 L 2353 7391.877 L 2002 7391.877 L 1652 7391.877 L 1666 7412.359 C 1688 7443.433 1756 7494.99 1808 7519.71 C 1834 7531.716 1884 7546.547 1922 7552.903 C 1960 7559.26 1990 7566.322 1990 7569.148 C 1990 7578.329 1893 7617.879 1838 7631.298 C 1772 7647.542 1638 7646.836 1575 7629.886 C 1443 7595.279 1333 7516.178 1280 7417.302 L 1269 7396.821 L 1190 7401.058 C 1146 7403.883 1096 7410.946 1078 7417.302 C 981 7452.615 870 7531.716 870 7565.617 C 870 7598.81 852 7587.51 811 7530.303 C 774 7475.922 764 7468.153 707 7442.728 C 578 7384.815 538 7374.927 360 7353.033 C 308 7346.677 251 7338.201 233 7334.671 C 215 7330.432 157 7323.37 103 7318.426 C 29 7312.07 5 7307.832 5 7300.063 C 5 7292.295 24 7288.057 75 7283.82 C 155 7277.464 246 7265.457 275 7257.688 C 286 7254.863 331 7246.388 375 7237.913 C 464 7221.669 596 7187.769 650 7167.994 C 739 7134.799 796 7086.774 820 7023.917 C 832 6994.254 855 6987.192 865 7011.205 C 878 7039.455 959 7113.611 987 7122.793 C 1050 7143.981 1139 7158.812 1201 7158.812 L 1268 7158.812 L 1304 7105.137 C 1347 7040.868 1437 6974.479 1521 6944.817 C 1589 6920.803 1685 6909.504 1759 6915.86 C 1818 6920.803 1916 6943.404 1925 6953.998 C 1928 6957.529 1898 6970.948 1858 6984.366 C 1804 7002.023 1771 7018.974 1732 7049.342 C 1683 7087.48 1640 7134.799 1640 7151.043 C 1640 7159.519 2351 7153.869 2361 7145.393 C 2364 7143.274 2363 7127.738 2358 7110.787 C 2351 7088.187 2333 7069.118 2289 7035.923 L 2230 6990.724 L 2230 5104.311 L 2230 3218.606 L 2350 3042.042 C 2416 2944.578 2470 2862.653 2470 2859.827 C 2470 2856.295 2477 2846.408 2486 2837.227 L 2503 2820.276 L 2520 2844.289 C 2529 2857.708 2595 2948.11 2666 3044.866 L 2795 3221.431 L 2798 5112.08 L 2800 7002.023 L 2765 7017.561 C 2723 7035.923 2695 7071.236 2686 7118.556 L 2679 7151.75 L 3019 7151.75 C 3207 7151.75 3360 7150.337 3360 7148.219 C 3360 7146.1 3349 7129.149 3336 7110.787 C 3314 7079.711 3191 6989.311 3171 6989.311 C 3166 6989.311 3141 6982.248 3114 6974.479 L 3066 6958.942 L 3088 6946.229 C 3123 6926.453 3218 6909.504 3291 6909.504 C 3453 6909.504 3623 6991.429 3700 7106.549 L 3729 7149.632 L 3782 7153.869 C 3840 7158.106 3902 7149.632 3967 7129.856 C 3991 7122.087 4014 7116.437 4020 7116.437 C 4031 7116.437 4099 7052.874 4124 7019.68 C 4133 7006.967 4144 6996.373 4149 6996.373 C 4154 6996.373 4172 7017.561 4190 7044.399 C 4249 7134.094 4295 7155.281 4585 7225.907 C 4662 7244.976 4845 7272.519 4908 7275.345 C 4968 7278.17 5005 7288.057 4995 7300.063 C 4993 7302.889 4960 7307.127 4923 7309.245 C 4886 7312.07 4812 7320.546 4760 7329.02 C 4656 7345.264 4617 7350.914 4522 7362.921 C 4450 7372.808 4319 7418.009 4259 7454.028 C 4221 7477.334 4160 7549.373 4160 7571.973 C 4160 7593.161 4141 7581.86 4130 7555.022 C 4122 7533.835 4100 7514.06 4040 7474.509 C 3952 7416.596 3902 7400.353 3793 7393.995 C 3738 7390.465 3730 7391.877 3724 7403.177 C 3644 7564.204 3432 7665.199 3227 7639.773 C 3161 7632.004 3025 7587.51 3016 7571.267 C 3013 7565.617 3012 7561.379 3014 7561.379 C 3016 7561.379 3041 7558.553 3070 7554.316 C 3157 7542.31 3257 7492.872 3318 7430.015 C 3357 7389.758 3371 7391.171 3023 7390.465 C 2845 7389.758 2699 7390.465 2696 7392.584 C 2689 7397.527 2709 7470.272 2720 7480.159 C 2727 7485.81 2753 7498.522 2778 7509.115 C 2979 7592.454 3144 7754.187 3259 7983.72 C 3349 8161.698 3395 8360.862 3393 8571.327 C 3392 8688.565 3377 8854.535 3366 8866.541 C 3364 8869.366 3359 8889.141 3355 8910.329 C 3351 8931.517 3346 8951.293 3343 8954.117 C 3341 8957.649 3328 8989.43 3315 9026.155 C 3286 9106.669 3205 9252.863 3167 9293.827 C 3158 9304.42 3150 9315.015 3150 9317.839 C 3150 9320.664 3124 9347.502 3092 9377.871 C 2960 9502.173 2855 9561.499 2711 9591.867 C 2607 9613.761 2530 9613.761 2430 9592.573 Z M 2618 9310.071 C 2814 9273.346 2988 9115.144 3087 8885.611 C 3100 8854.535 3113 8821.341 3116 8811.453 C 3118 8801.565 3123 8789.559 3125 8784.616 C 3128 8779.671 3140 8730.233 3152 8675.146 C 3184 8524.007 3179 8288.823 3140 8166.641 C 3135 8148.278 3127 8121.44 3124 8106.609 C 3121 8092.484 3112 8067.765 3105 8052.227 C 3097 8036.69 3086 8009.852 3080 7992.195 C 3067 7957.589 3058 7941.345 2998 7851.651 C 2920 7732.999 2802 7636.949 2682 7595.279 C 2625 7575.504 2603 7571.267 2528 7569.854 C 2446 7567.028 2437 7568.441 2368 7591.748 C 2241 7635.536 2139 7713.224 2052 7833.287 C 1985 7926.513 1920 8063.527 1904 8147.571 C 1901 8165.228 1895 8192.066 1891 8208.31 C 1886 8224.554 1882 8260.573 1881 8289.53 C 1880 8317.78 1874 8345.324 1869 8349.561 C 1852 8363.686 1880 8650.426 1906 8730.233 C 1915 8757.777 1923 8786.029 1925 8793.796 C 1929 8816.397 1970 8911.742 1985 8935.048 C 1992 8947.055 2001 8964.005 2005 8973.892 C 2019 9007.087 2082 9090.425 2133 9141.982 C 2270 9282.526 2443 9342.558 2618 9310.071 Z" style="fill: rgb(255, 250, 250);"/>
  </g>
  <path d="M 252.854 109.316 m -87.832 0 a 87.832 110.026 0 1 0 175.664 0 a 87.832 110.026 0 1 0 -175.664 0 Z M 252.854 109.316 m -62.75 0 a 62.75 77.995 0 0 1 125.5 0 a 62.75 77.995 0 0 1 -125.5 0 Z" style="paint-order: fill; fill: rgb(255, 250, 250);" bx:shape="ring 252.854 109.316 62.75 77.995 87.832 110.026 1@6dba8d9c"/>
</svg>